<svg width="138" height="76" viewBox="0 0 138 76" fill="none" xmlns="http://www.w3.org/2000/svg">
<rect x="1.04883" y="0.890625" width="136.696" height="73.9698" rx="12.3283" transform="rotate(0.290837 1.04883 0.890625)" fill="black"/>
<path d="M50.1709 24.543L50.0343 51.4407L46.8823 51.4247L32.3323 30.2314L32.0696 30.2301L31.9624 51.349L28.7053 51.3325L28.8418 24.4347L31.9939 24.4507L46.5961 45.6969L46.8588 45.6982L46.9663 24.5267L50.1709 24.543ZM56.5519 51.4738L56.6885 24.5761L72.9217 24.6585L72.907 27.5479L59.931 27.482L59.8848 36.5705L72.0203 36.6321L72.0057 39.5215L59.8702 39.4599L59.8237 48.601L73.01 48.6679L72.9953 51.5573L56.5519 51.4738ZM83.5416 51.6108L76.3233 24.6757L79.633 24.6925L85.143 46.628L85.4057 46.6294L91.2432 24.7515L94.9206 24.7701L100.536 46.7062L100.798 46.7075L106.531 24.8291L109.84 24.8459L102.349 51.7063L98.9868 51.6892L93.1592 30.225L92.9491 30.2239L86.9038 51.6279L83.5416 51.6108Z" fill="white"/>
</svg>
