<svg width="74" height="74" viewBox="0 0 74 74" fill="none" xmlns="http://www.w3.org/2000/svg">
<path d="M53.1017 50.0494L20.5072 49.884C20.222 49.8808 19.9426 49.8029 19.6969 49.6579C19.4512 49.5129 19.2479 49.3059 19.1073 49.0578C18.9667 48.8096 18.8937 48.5288 18.8956 48.2436C18.8974 47.9583 18.9742 47.6786 19.118 47.4323C20.4723 45.1167 22.1909 39.2603 22.2279 31.9653C22.2477 28.0752 23.8119 24.3523 26.5766 21.6156C29.3413 18.8788 33.0798 17.3525 36.9699 17.3722C40.86 17.3919 44.5829 18.9562 47.3196 21.7209C50.0564 24.4855 51.5827 28.2241 51.563 32.1142C51.526 39.4113 53.187 45.2828 54.5198 47.612C54.6613 47.86 54.7352 48.1409 54.734 48.4265C54.7328 48.7121 54.6566 48.9924 54.5129 49.2392C54.3693 49.4861 54.1634 49.6909 53.9157 49.8331C53.668 49.9753 53.3873 50.0499 53.1017 50.0494Z" fill="#1C1C1C" fill-opacity="0.1"/>
<path d="M55.9296 46.7924C54.8089 44.8391 53.1562 39.3201 53.1927 32.1228C53.2146 27.8005 51.5187 23.6465 48.4778 20.5747C45.437 17.5028 41.3005 15.7648 36.9782 15.7428C32.6559 15.7209 28.5019 17.4169 25.43 20.4577C22.3582 23.4985 20.6201 27.635 20.5982 31.9573C20.5616 39.1567 18.851 44.6566 17.7105 46.5984C17.4192 47.092 17.2633 47.6537 17.2585 48.2269C17.2536 48.8 17.3999 49.3643 17.6827 49.8628C17.9655 50.3614 18.3748 50.7765 18.8692 51.0664C19.3636 51.3563 19.9258 51.5107 20.4989 51.5141L28.8126 51.5563C29.1792 53.398 30.1708 55.0567 31.6195 56.2516C33.0682 57.4465 34.8852 58.1043 36.7631 58.1139C38.641 58.1234 40.4646 57.484 41.9253 56.3039C43.3861 55.1237 44.3945 53.4753 44.7798 51.6373L53.0934 51.6795C53.6664 51.6816 54.2298 51.5327 54.7269 51.2477C55.224 50.9627 55.6371 50.5517 55.9247 50.0561C56.2123 49.5605 56.3642 48.9979 56.3651 48.4249C56.3659 47.8519 56.2157 47.2888 55.9296 46.7924ZM36.7796 54.8562C35.7688 54.8508 34.7846 54.5322 33.9623 53.9443C33.1401 53.3564 32.5202 52.5281 32.1881 51.5734L41.4042 51.6202C41.0625 52.5715 40.4342 53.3934 39.6061 53.9729C38.7779 54.5525 37.7904 54.8611 36.7796 54.8562ZM20.5155 48.2546C22.0978 45.5654 23.8203 39.324 23.8576 31.9739C23.8752 28.5161 25.2657 25.2068 27.7231 22.7742C30.1806 20.3415 33.5038 18.9847 36.9616 19.0023C40.4195 19.0198 43.7287 20.4103 46.1614 22.8677C48.594 25.3252 49.9508 28.6484 49.9333 32.1063C49.896 39.4502 51.551 45.7088 53.11 48.4201L20.5155 48.2546Z" fill="#1C1C1C"/>
</svg>
