<svg width="75" height="75" viewBox="0 0 75 75" fill="none" xmlns="http://www.w3.org/2000/svg">
<path d="M41.9648 16.5636L41.7868 51.6266C41.7739 54.1837 39.6974 56.2391 37.1403 56.2262C34.5832 56.2132 32.5278 54.1368 32.5407 51.5796L32.7187 16.5167L22.0608 27.067C20.2457 28.8637 17.313 28.8488 15.5163 27.0338C13.7195 25.2187 13.7344 22.286 15.5495 20.4893L34.1356 2.09093C35.9506 0.294217 38.8833 0.309104 40.6801 2.12415L59.0784 20.7102C60.8751 22.5253 60.8602 25.458 59.0452 27.2547C57.2301 29.0514 54.2974 29.0366 52.5007 27.2215L41.9648 16.5636ZM9.42548 51.4623L27.9177 51.5562C27.8918 56.656 32.017 60.8233 37.1168 60.8492C42.2167 60.8751 46.384 56.7499 46.4099 51.65L64.9021 51.7439C70.0019 51.7698 74.1271 55.9372 74.1013 61.037L74.0778 65.66C74.0519 70.7598 69.8845 74.8851 64.7848 74.8592L9.30815 74.5776C4.20834 74.5517 0.0830915 70.3843 0.108979 65.2845L0.132446 60.6615C0.158333 55.5617 4.32568 51.4364 9.42548 51.4623ZM62.5143 66.7571C63.4339 66.7618 64.3176 66.4009 64.9712 65.754C65.6247 65.1071 65.9945 64.227 65.9992 63.3074C66.0039 62.3878 65.643 61.5041 64.9961 60.8505C64.3491 60.197 63.4691 59.8272 62.5495 59.8225C61.6299 59.8179 60.7461 60.1787 60.0926 60.8256C59.4391 61.4726 59.0693 62.3526 59.0646 63.2722C59.0599 64.1918 59.4208 65.0756 60.0677 65.7291C60.7146 66.3826 61.5947 66.7524 62.5143 66.7571Z" fill="#9CA3AF"/>
</svg>
